<svg width="40" height="40" viewBox="0 0 40 40" fill="none" xmlns="http://www.w3.org/2000/svg">
      <path d="M7.79201 32.5H10.083L27.375 15.208L25.042 12.917L7.79201 30.208V32.5ZM32.833 13.708L26.542 7.41699L30.417 3.54199L36.667 9.87499L32.833 13.708ZM4.95801 35.333V29.042L25.125 8.87499L31.375 15.167L11.25 35.333H4.95801ZM26.208 14.083L25.042 12.917L27.375 15.208L26.208 14.083Z"
            fill="#32325D" />
      <path d="M7.79201 32.5H10.083L27.375 15.208L25.042 12.917L7.79201 30.208V32.5ZM32.833 13.708L26.542 7.41699L30.417 3.54199L36.667 9.87499L32.833 13.708ZM4.95801 35.333V29.042L25.125 8.87499L31.375 15.167L11.25 35.333H4.95801ZM26.208 14.083L25.042 12.917L27.375 15.208L26.208 14.083Z"
            fill="#32325D" />
</svg>