<svg width="48" height="48" viewBox="0 0 48 48" fill="none" xmlns="http://www.w3.org/2000/svg">
<path d="M9 42C8.2 42 7.5 41.7 6.9 41.1C6.3 40.5 6 39.8 6 39V25.5H9V39H22.5V42H9ZM25.5 42V39H39V25.5H42V39C42 39.8 41.7 40.5 41.1 41.1C40.5 41.7 39.8 42 39 42H25.5ZM11.85 34.6L17.75 27L22.4 33.35L29 24.8L36.35 34.6H11.85ZM6 22.5V9C6 8.2 6.3 7.5 6.9 6.9C7.5 6.3 8.2 6 9 6H22.5V9H9V22.5H6ZM39 22.5V9H25.5V6H39C39.8 6 40.5 6.3 41.1 6.9C41.7 7.5 42 8.2 42 9V22.5H39ZM31.2 19.5C30.4333 19.5 29.7917 19.2417 29.275 18.725C28.7583 18.2083 28.5 17.5667 28.5 16.8C28.5 16.0333 28.7583 15.3917 29.275 14.875C29.7917 14.3583 30.4333 14.1 31.2 14.1C31.9667 14.1 32.6083 14.3583 33.125 14.875C33.6417 15.3917 33.9 16.0333 33.9 16.8C33.9 17.5667 33.6417 18.2083 33.125 18.725C32.6083 19.2417 31.9667 19.5 31.2 19.5Z" fill="#32325D"/>
</svg>
