<svg width="24" height="24" viewBox="0 0 24 24" fill="none" xmlns="http://www.w3.org/2000/svg">
<path d="M9.99994 20.8101L5.20994 17.8801C5.05296 17.7901 4.91549 17.6698 4.8056 17.526C4.69571 17.3823 4.6156 17.2181 4.56997 17.043C4.52434 16.8679 4.5141 16.6855 4.53985 16.5064C4.5656 16.3273 4.62683 16.1552 4.71994 16.0001V16.0001L7.30994 11.7901L14.5199 16.1301L11.8999 20.3601C11.7718 20.5623 11.5946 20.7289 11.3848 20.8443C11.175 20.9597 10.9394 21.0201 10.6999 21.0201C10.4518 21.0152 10.2097 20.9426 9.99994 20.8101ZM7.84994 10.7501L12.0799 3.64005C12.2549 3.34573 12.539 3.13232 12.8704 3.04619C13.2018 2.96007 13.5538 3.00817 13.8499 3.18005L18.8499 6.00005C18.9967 6.08049 19.1261 6.18913 19.2307 6.31974C19.3353 6.45035 19.4131 6.60035 19.4596 6.76111C19.506 6.92188 19.5203 7.09024 19.5015 7.25652C19.4826 7.42281 19.4312 7.58373 19.3499 7.73005V7.73005L15.3499 15.0901L7.84994 10.7501Z" fill="white"/>
</svg>
