<svg width="18" height="22" viewBox="0 0 18 22" fill="none" xmlns="http://www.w3.org/2000/svg">
<path d="M17.32 9.47C16.981 9.22273 16.5787 9.07705 16.16 9.05C15.9778 9.04046 15.7961 9.07475 15.63 9.15V9.05L15.73 8.63C15.83 8.21 15.83 7.26 14.15 7.05H13.62C13.3148 7.02748 13.0128 7.1244 12.7777 7.3203C12.5426 7.5162 12.3928 7.79576 12.36 8.1V8.1V7.26C12.36 6.84 12.04 6.1 10.88 6.1H10.57C9.10996 6 8.99996 6.85 8.99996 7.37V7.47C8.99996 7.68 8.89996 7.68 8.89996 7.68V1.58C8.84212 1.14513 8.62915 0.745779 8.30025 0.455463C7.97134 0.165147 7.54865 0.00340204 7.10996 0H6.99996C6.61536 0.0556915 6.26196 0.242993 5.99996 0.53C5.83113 0.693365 5.69713 0.889226 5.60605 1.10578C5.51496 1.32232 5.46866 1.55508 5.46996 1.79L5.56996 9.47C5.61657 10.6009 5.54619 11.7336 5.35996 12.85L5.25996 12.75L2.89996 10.95C2.59208 10.7217 2.23035 10.577 1.84996 10.53C1.60441 10.5238 1.3611 10.578 1.1414 10.6879C0.921703 10.7977 0.732344 10.9599 0.589957 11.16C0.310517 11.5199 0.162342 11.9644 0.169957 12.42C0.175683 12.6494 0.235777 12.8742 0.3453 13.0758C0.454823 13.2775 0.610645 13.4503 0.799957 13.58L4.79996 17C5.39855 18.1031 6.22319 19.0674 7.21996 19.83V22H15.22V19.68L17.54 12.31L17.64 12.1C17.85 10.84 18.06 10 17.32 9.47Z" fill="white"/>
</svg>
